<svg xmlns="http://www.w3.org/2000/svg" width="902" height="894" viewBox="0 0 902 894">
<g>
<path d="M 176.65 814.94 C179.08,827.28 180.95,837.89 180.79,838.52 C180.45,839.87 177.37,836.20 174.05,830.50 C172.76,828.30 170.04,823.80 167.99,820.50 C163.74,813.66 146.90,784.50 142.00,775.50 C140.20,772.20 135.39,763.42 131.30,756.00 C107.43,712.63 85.24,664.15 64.68,610.50 C53.61,581.61 37.60,528.71 31.44,500.68 C30.73,497.47 29.89,494.15 29.56,493.30 C27.46,487.81 17.45,433.00 13.89,407.50 C7.64,362.67 5.66,335.92 5.65,296.50 C5.65,254.45 9.09,223.29 16.93,194.50 C28.77,151.02 44.99,124.11 74.00,99.81 C93.16,83.76 114.21,73.64 138.50,68.81 C159.85,64.57 197.99,66.35 219.50,72.59 C222.25,73.39 226.75,74.70 229.50,75.50 C261.14,84.71 285.29,94.51 321.95,113.02 C337.57,120.91 369.57,138.06 378.80,143.50 C381.75,145.24 391.00,150.48 407.00,159.49 C415.52,164.28 427.00,170.81 432.50,173.98 C438.00,177.16 446.77,182.13 452.00,185.03 C457.23,187.93 463.08,191.20 465.00,192.30 C470.00,195.13 506.18,213.21 514.50,217.02 C522.20,220.55 544.91,229.45 552.00,231.71 C572.87,238.37 589.51,240.94 616.72,241.70 C628.60,242.03 637.70,242.68 637.39,243.18 C635.86,245.66 603.83,260.22 590.47,264.51 C559.19,274.56 537.54,277.48 499.83,276.75 C462.19,276.01 431.74,270.90 387.50,257.88 C383.65,256.75 362.50,249.82 340.50,242.48 C283.35,223.41 263.73,218.40 234.23,215.31 C220.24,213.85 216.23,213.78 205.61,214.83 C180.42,217.33 163.93,224.57 149.60,239.42 C141.25,248.09 132.99,262.34 128.04,276.66 C124.70,286.31 120.13,310.26 119.05,323.79 C116.46,356.33 116.00,368.41 116.00,404.78 C116.00,465.58 121.18,524.37 132.40,591.00 C133.18,595.67 134.35,602.65 134.99,606.50 C136.50,615.61 144.72,660.47 146.53,669.50 C147.30,673.35 149.53,684.15 151.48,693.50 C154.96,710.18 163.85,752.95 166.60,766.25 C168.02,773.11 170.36,784.06 171.56,789.50 C171.93,791.15 174.22,802.60 176.65,814.94 ZM 850.57 308.84 C846.98,312.24 844.26,314.00 842.61,314.00 C839.69,314.00 839.56,313.54 837.96,296.50 C834.59,260.61 824.31,228.56 809.40,207.47 C788.91,178.49 760.82,165.95 719.50,167.34 C698.84,168.03 683.94,170.82 658.00,178.84 C615.37,192.02 608.89,193.80 588.00,198.15 C584.97,198.78 575.30,199.29 566.50,199.28 C553.88,199.26 548.28,198.79 540.00,197.05 C502.39,189.14 463.51,168.59 420.66,133.98 C391.84,110.70 390.87,109.55 404.62,115.09 C456.36,135.93 498.69,138.93 542.73,124.89 C553.50,121.46 572.82,113.18 580.29,108.81 C582.93,107.26 585.28,106.00 585.51,106.00 C586.80,106.00 606.42,93.73 627.00,80.06 C639.92,71.47 654.78,61.91 660.00,58.82 C685.82,43.51 716.89,30.99 740.50,26.37 C757.27,23.09 760.82,22.80 778.43,23.28 C800.57,23.88 810.83,26.21 827.50,34.42 C858.67,49.79 880.13,79.42 892.37,124.00 C898.84,147.58 900.60,185.57 896.45,212.18 C894.91,222.05 890.93,239.71 889.04,245.00 C884.40,258.04 877.96,272.24 872.72,281.00 C868.66,287.78 855.97,303.74 850.57,308.84 Z" fill="rgb(3,160,225)"/>
<path d="M 312.50 511.21 L 311.50 843.50 L 224.00 844.02 L 224.00 382.00 L 325.81 382.00 L 330.75 388.75 C333.46,392.46 342.12,404.50 349.99,415.50 C357.86,426.50 365.62,437.30 367.23,439.50 C368.84,441.70 375.79,451.38 382.68,461.00 C389.57,470.62 401.13,486.74 408.36,496.82 C415.58,506.89 422.17,516.13 423.00,517.35 C423.83,518.57 429.67,526.67 436.00,535.35 C450.47,555.20 451.87,557.25 451.94,558.61 C451.97,559.21 447.84,563.32 442.75,567.73 C423.79,584.18 407.95,602.79 401.49,616.20 C399.71,619.89 398.02,623.83 397.72,624.95 C397.43,626.08 396.81,626.99 396.34,626.99 C394.52,626.96 375.37,601.76 356.00,573.90 C350.17,565.52 331.92,539.08 324.81,528.71 C320.58,522.54 316.08,516.08 314.81,514.35 Z" fill="rgb(59,51,135)"/>
<path d="M 715.06 672.25 L 715.00 844.00 L 627.01 844.00 L 626.75 704.87 L 626.50 565.74 L 618.00 571.51 C568.12,605.36 558.07,613.01 542.98,628.64 C515.47,657.13 499.89,683.17 493.54,711.31 C491.26,721.41 491.49,740.71 494.02,751.37 C497.86,767.51 502.42,777.67 512.52,792.56 C516.08,797.82 519.00,802.32 519.00,802.56 C519.00,806.08 486.30,787.74 467.33,773.59 C426.31,742.99 404.66,708.51 404.78,674.00 C404.85,655.18 409.25,641.35 421.35,622.00 C435.23,599.79 461.32,574.37 496.00,549.27 C499.58,546.68 506.24,541.52 510.81,537.79 C519.88,530.39 553.58,505.83 575.00,491.01 C602.44,472.02 635.73,447.55 647.95,437.38 C723.12,374.81 744.84,333.22 725.36,289.10 C724.05,286.12 723.17,283.50 723.41,283.25 C724.52,282.15 729.11,284.88 740.35,293.33 C770.07,315.67 785.27,337.71 790.07,365.44 C791.78,375.32 790.71,395.45 787.97,405.00 C785.45,413.81 777.48,431.05 772.28,438.94 C762.16,454.31 736.62,482.53 721.10,495.50 L 715.11 500.50 Z" fill="rgb(224,33,42)"/>
<path d="M 0.00 447.00 L 0.00 0.00 L 451.00 0.00 L 902.00 0.00 L 902.00 447.00 L 902.00 894.00 L 451.00 894.00 L 0.00 894.00 L 0.00 447.00 ZM 312.00 677.35 L 312.50 511.21 L 314.81 514.35 C316.08,516.08 320.58,522.54 324.81,528.71 C331.92,539.08 350.17,565.52 356.00,573.90 C375.37,601.76 394.52,626.96 396.34,626.99 C396.81,626.99 397.43,626.08 397.72,624.95 C398.02,623.83 399.71,619.89 401.49,616.20 C407.95,602.79 423.79,584.18 442.75,567.73 C447.84,563.32 451.97,559.21 451.94,558.61 C451.87,557.25 450.47,555.20 436.00,535.35 C429.67,526.67 423.83,518.57 423.00,517.35 C422.17,516.13 415.58,506.89 408.36,496.82 C401.13,486.74 389.57,470.62 382.68,461.00 C375.79,451.38 368.84,441.70 367.23,439.50 C365.62,437.30 357.86,426.50 349.99,415.50 C342.12,404.50 333.46,392.46 330.75,388.75 L 325.81 382.00 L 274.91 382.00 L 224.00 382.00 L 224.00 613.01 L 224.00 844.02 L 267.75 843.76 L 311.50 843.50 L 312.00 677.35 ZM 715.06 672.25 L 715.11 500.50 L 721.10 495.50 C736.62,482.53 762.16,454.31 772.28,438.94 C777.48,431.05 785.45,413.81 787.97,405.00 C790.71,395.45 791.78,375.32 790.07,365.44 C785.27,337.71 770.07,315.67 740.35,293.33 C729.11,284.88 724.52,282.15 723.41,283.25 C723.17,283.50 724.05,286.12 725.36,289.10 C744.84,333.22 723.12,374.81 647.95,437.38 C635.73,447.55 602.44,472.02 575.00,491.01 C553.58,505.83 519.88,530.39 510.81,537.79 C506.24,541.52 499.58,546.68 496.00,549.27 C461.32,574.37 435.23,599.79 421.35,622.00 C409.25,641.35 404.85,655.18 404.78,674.00 C404.66,708.51 426.31,742.99 467.33,773.59 C486.30,787.74 519.00,806.08 519.00,802.56 C519.00,802.32 516.08,797.82 512.52,792.56 C502.42,777.67 497.86,767.51 494.02,751.37 C491.49,740.71 491.26,721.41 493.54,711.31 C499.89,683.17 515.47,657.13 542.98,628.64 C558.07,613.01 568.12,605.36 618.00,571.51 L 626.50 565.74 L 626.75 704.87 L 627.01 844.00 L 671.00 844.00 L 715.00 844.00 L 715.06 672.25 ZM 176.65 814.94 C174.22,802.60 171.93,791.15 171.56,789.50 C170.36,784.06 168.02,773.11 166.60,766.25 C163.85,752.95 154.96,710.18 151.48,693.50 C149.53,684.15 147.30,673.35 146.53,669.50 C144.72,660.47 136.50,615.61 134.99,606.50 C134.35,602.65 133.18,595.67 132.40,591.00 C121.18,524.37 116.00,465.58 116.00,404.78 C116.00,368.41 116.46,356.33 119.05,323.79 C120.13,310.26 124.70,286.31 128.04,276.66 C132.99,262.34 141.25,248.09 149.60,239.42 C163.93,224.57 180.42,217.33 205.61,214.83 C216.23,213.78 220.24,213.85 234.23,215.31 C263.73,218.40 283.35,223.41 340.50,242.48 C362.50,249.82 383.65,256.75 387.50,257.88 C431.74,270.90 462.19,276.01 499.83,276.75 C537.54,277.48 559.19,274.56 590.47,264.51 C603.83,260.22 635.86,245.66 637.39,243.18 C637.70,242.68 628.60,242.03 616.72,241.70 C589.51,240.94 572.87,238.37 552.00,231.71 C544.91,229.45 522.20,220.55 514.50,217.02 C506.18,213.21 470.00,195.13 465.00,192.30 C463.08,191.20 457.23,187.93 452.00,185.03 C446.77,182.13 438.00,177.16 432.50,173.98 C427.00,170.81 415.52,164.28 407.00,159.49 C391.00,150.48 381.75,145.24 378.80,143.50 C369.57,138.06 337.57,120.91 321.95,113.02 C285.29,94.51 261.14,84.71 229.50,75.50 C226.75,74.70 222.25,73.39 219.50,72.59 C197.99,66.35 159.85,64.57 138.50,68.81 C114.21,73.64 93.16,83.76 74.00,99.81 C44.99,124.11 28.77,151.02 16.93,194.50 C9.09,223.29 5.65,254.45 5.65,296.50 C5.66,335.92 7.64,362.67 13.89,407.50 C17.45,433.00 27.46,487.81 29.56,493.30 C29.89,494.15 30.73,497.47 31.44,500.68 C37.60,528.71 53.61,581.61 64.68,610.50 C85.24,664.15 107.43,712.63 131.30,756.00 C135.39,763.42 140.20,772.20 142.00,775.50 C146.90,784.50 163.74,813.66 167.99,820.50 C170.04,823.80 172.76,828.30 174.05,830.50 C177.37,836.20 180.45,839.87 180.79,838.52 C180.95,837.89 179.08,827.28 176.65,814.94 ZM 850.57 308.84 C855.97,303.74 868.66,287.78 872.72,281.00 C877.96,272.24 884.40,258.04 889.04,245.00 C890.93,239.71 894.91,222.05 896.45,212.18 C900.60,185.57 898.84,147.58 892.37,124.00 C880.13,79.42 858.67,49.79 827.50,34.42 C810.83,26.21 800.57,23.88 778.43,23.28 C760.82,22.80 757.27,23.09 740.50,26.37 C716.89,30.99 685.82,43.51 660.00,58.82 C654.78,61.91 639.92,71.47 627.00,80.06 C606.42,93.73 586.80,106.00 585.51,106.00 C585.28,106.00 582.93,107.26 580.29,108.81 C572.82,113.18 553.50,121.46 542.73,124.89 C498.69,138.93 456.36,135.93 404.62,115.09 C390.87,109.55 391.84,110.70 420.66,133.98 C463.51,168.59 502.39,189.14 540.00,197.05 C548.28,198.79 553.88,199.26 566.50,199.28 C575.30,199.29 584.97,198.78 588.00,198.15 C608.89,193.80 615.37,192.02 658.00,178.84 C683.94,170.82 698.84,168.03 719.50,167.34 C760.82,165.95 788.91,178.49 809.40,207.47 C824.31,228.56 834.59,260.61 837.96,296.50 C839.56,313.54 839.69,314.00 842.61,314.00 C844.26,314.00 846.98,312.24 850.57,308.84 Z" fill="rgb(253,254,254)"/>
</g>
</svg>